<?xml version="1.0" encoding="UTF-8"?>
<svg xmlns="http://www.w3.org/2000/svg" xmlns:xlink="http://www.w3.org/1999/xlink" width="668.94pt" height="308.92pt" viewBox="0 0 668.94 308.92" version="1.1">
<defs>
<clipPath id="clip1">
  <path d="M 101 153 L 198 153 L 198 308.921875 L 101 308.921875 Z M 101 153 "/>
</clipPath>
<clipPath id="clip2">
  <path d="M 618 155 L 668.941406 155 L 668.941406 266 L 618 266 Z M 618 155 "/>
</clipPath>
</defs>
<g id="surface1">
<path style=" stroke:none;fill-rule:nonzero;fill:rgb(30.599976%,34.498596%,36.499023%);fill-opacity:1;" d="M 1.019531 249.4375 L 2.304688 247.910156 C 3.488281 246.460938 5.625 246.246094 7.074219 247.429688 C 7.25 247.574219 7.414063 247.734375 7.554688 247.910156 C 16.289063 255.148438 27.28125 259.097656 38.621094 259.074219 C 51.980469 259.074219 63.769531 252.0625 63.769531 238.507813 C 63.769531 210.5 3.644531 218.375 3.644531 182.726563 C 3.644531 163.257813 20.058594 153.191406 38.621094 153.191406 C 49.335938 152.84375 59.839844 156.214844 68.347656 162.734375 C 69.933594 163.675781 70.457031 165.726563 69.515625 167.3125 C 69.421875 167.464844 69.320313 167.609375 69.207031 167.742188 L 67.871094 169.507813 C 66.902344 171.046875 64.871094 171.507813 63.332031 170.539063 C 63.070313 170.371094 62.832031 170.171875 62.621094 169.9375 C 55.460938 164.753906 46.792969 162.070313 37.953125 162.304688 C 25.496094 162.304688 13.234375 167.980469 13.234375 182.199219 C 13.234375 210.832031 73.40625 202.101563 73.40625 238.417969 C 73.40625 255.925781 58.519531 267.953125 38.429688 267.953125 C 24.859375 268.320313 11.648438 263.546875 1.449219 254.589844 C -0.0703125 253.546875 -0.457031 251.464844 0.589844 249.945313 C 0.714844 249.765625 0.859375 249.59375 1.019531 249.4375 "/>
<g clip-path="url(#clip1)" clip-rule="nonzero">
<path style=" stroke:none;fill-rule:nonzero;fill:rgb(30.599976%,34.498596%,36.499023%);fill-opacity:1;" d="M 148.613281 258.839844 C 170.039063 258.839844 187.550781 241.132813 187.550781 210.5 C 187.550781 180.960938 171.804688 162.160156 149.375 162.160156 C 129.238281 162.160156 110.4375 176.476563 110.4375 210.734375 C 110.4375 235.027344 123.988281 258.839844 148.613281 258.839844 M 101.609375 159.535156 C 101.386719 157.703125 102.6875 156.039063 104.519531 155.8125 C 104.789063 155.78125 105.0625 155.78125 105.332031 155.8125 L 107.097656 155.8125 C 108.929688 155.589844 110.59375 156.890625 110.820313 158.722656 C 110.851563 158.992188 110.851563 159.265625 110.820313 159.535156 L 110.820313 169.078125 C 110.824219 172.003906 110.601563 174.921875 110.152344 177.8125 L 110.578125 177.8125 C 117.386719 162.300781 133.027344 152.574219 149.949219 153.332031 C 179.246094 153.332031 197.191406 176.714844 197.191406 210.59375 C 197.191406 245.382813 176.863281 267.855469 148.613281 267.855469 C 132.125 267.867188 117.175781 258.183594 110.4375 243.140625 L 109.816406 243.140625 C 110.414063 246.285156 110.703125 249.480469 110.675781 252.683594 L 110.675781 305.171875 C 110.898438 307.003906 109.597656 308.671875 107.765625 308.894531 C 107.496094 308.925781 107.222656 308.925781 106.953125 308.894531 L 105.1875 308.894531 C 103.355469 309.117188 101.691406 307.816406 101.464844 305.984375 C 101.433594 305.714844 101.433594 305.441406 101.464844 305.171875 L 101.609375 159.535156 "/>
</g>
<path style=" stroke:none;fill-rule:nonzero;fill:rgb(30.599976%,34.498596%,36.499023%);fill-opacity:1;" d="M 226.488281 159.535156 C 226.265625 157.703125 227.566406 156.039063 229.398438 155.8125 C 229.667969 155.78125 229.941406 155.78125 230.210938 155.8125 L 231.976563 155.8125 C 233.808594 155.589844 235.472656 156.890625 235.699219 158.722656 C 235.730469 158.992188 235.730469 159.265625 235.699219 159.535156 L 235.699219 176.617188 C 235.707031 179.632813 235.421875 182.636719 234.839844 185.589844 L 235.269531 185.589844 C 240.757813 168.742188 253.640625 155.195313 272.011719 155.195313 C 275.066406 155.195313 276.785156 156.480469 276.785156 158.914063 L 276.785156 160.871094 C 276.785156 163.257813 274.828125 164.59375 272.011719 164.59375 C 247.53125 164.59375 235.9375 193.703125 235.9375 217.941406 L 235.9375 261.464844 C 236.160156 263.292969 234.859375 264.960938 233.027344 265.183594 C 232.757813 265.21875 232.484375 265.21875 232.214844 265.183594 L 230.449219 265.183594 C 228.617188 265.410156 226.953125 264.105469 226.726563 262.273438 C 226.695313 262.003906 226.695313 261.730469 226.726563 261.464844 L 226.488281 159.535156 "/>
<path style=" stroke:none;fill-rule:nonzero;fill:rgb(30.599976%,34.498596%,36.499023%);fill-opacity:1;" d="M 296.207031 159.582031 C 295.921875 157.761719 297.164063 156.050781 298.988281 155.765625 C 299.332031 155.710938 299.679688 155.710938 300.023438 155.765625 L 302.21875 155.765625 C 304.074219 155.511719 305.78125 156.808594 306.035156 158.660156 C 306.078125 158.96875 306.078125 159.277344 306.035156 159.582031 L 306.035156 261.605469 C 306.289063 263.460938 304.996094 265.167969 303.140625 265.421875 C 302.835938 265.464844 302.523438 265.464844 302.21875 265.421875 L 300.023438 265.421875 C 298.199219 265.707031 296.492188 264.460938 296.207031 262.640625 C 296.152344 262.296875 296.152344 261.949219 296.207031 261.605469 L 296.207031 159.582031 "/>
<path style=" stroke:none;fill-rule:nonzero;fill:rgb(30.599976%,34.498596%,36.499023%);fill-opacity:1;" d="M 340.390625 159.535156 C 340.167969 157.703125 341.472656 156.039063 343.304688 155.8125 C 343.570313 155.78125 343.847656 155.78125 344.113281 155.8125 L 345.878906 155.8125 C 347.714844 155.589844 349.378906 156.890625 349.605469 158.722656 C 349.636719 158.992188 349.636719 159.265625 349.605469 159.535156 L 349.605469 175.042969 C 349.609375 178.054688 349.324219 181.0625 348.742188 184.015625 L 349.171875 184.015625 C 357.035156 165.355469 375.304688 153.210938 395.558594 153.191406 C 424.1875 153.191406 431.628906 170.03125 431.628906 195.851563 L 431.628906 261.464844 C 431.855469 263.292969 430.554688 264.960938 428.722656 265.183594 C 428.453125 265.21875 428.179688 265.21875 427.910156 265.183594 L 426.144531 265.183594 C 424.3125 265.410156 422.644531 264.105469 422.421875 262.273438 C 422.390625 262.003906 422.390625 261.730469 422.421875 261.464844 L 422.421875 199.09375 C 422.421875 180.007813 420.035156 162.109375 395.507813 162.109375 C 370.980469 162.109375 349.554688 182.679688 349.554688 210.691406 L 349.554688 261.464844 C 349.777344 263.292969 348.476563 264.960938 346.644531 265.183594 C 346.378906 265.21875 346.101563 265.21875 345.835938 265.183594 L 344.113281 265.183594 C 342.28125 265.410156 340.617188 264.105469 340.390625 262.273438 C 340.359375 262.003906 340.359375 261.730469 340.390625 261.464844 L 340.390625 159.535156 "/>
<path style=" stroke:none;fill-rule:nonzero;fill:rgb(30.599976%,34.498596%,36.499023%);fill-opacity:1;" d="M 466.847656 115.777344 C 466.621094 113.945313 467.925781 112.28125 469.757813 112.054688 C 470.027344 112.023438 470.300781 112.023438 470.570313 112.054688 L 472.476563 112.054688 C 474.308594 111.832031 475.976563 113.132813 476.199219 114.964844 C 476.234375 115.234375 476.234375 115.507813 476.199219 115.777344 L 476.199219 198.902344 L 495.667969 198.902344 L 529.359375 158.011719 C 530.472656 156.515625 532.269531 155.6875 534.128906 155.8125 L 537.425781 155.8125 C 540.476563 155.8125 541.574219 158.011719 539.378906 160.585938 L 503.734375 203.007813 L 503.734375 203.4375 L 543.960938 260.699219 C 545.726563 263.324219 544.628906 265.472656 541.574219 265.472656 L 538.28125 265.472656 C 536.484375 265.566406 534.789063 264.644531 533.890625 263.085938 L 495.71875 207.730469 L 476.007813 207.730469 L 476.007813 261.464844 C 476.234375 263.292969 474.929688 264.960938 473.101563 265.183594 C 472.828125 265.21875 472.558594 265.21875 472.285156 265.183594 L 470.570313 265.183594 C 468.738281 265.410156 467.070313 264.105469 466.847656 262.273438 C 466.8125 262.003906 466.8125 261.730469 466.847656 261.464844 L 466.847656 115.777344 "/>
<path style=" stroke:none;fill-rule:nonzero;fill:rgb(30.599976%,34.498596%,36.499023%);fill-opacity:1;" d="M 568.773438 115.777344 C 568.550781 113.945313 569.851563 112.28125 571.683594 112.054688 C 571.953125 112.023438 572.226563 112.023438 572.496094 112.054688 L 574.261719 112.054688 C 576.09375 111.832031 577.757813 113.132813 577.984375 114.964844 C 578.015625 115.234375 578.015625 115.507813 577.984375 115.777344 L 577.984375 239.84375 C 577.984375 255.164063 585.429688 256.453125 590.675781 257.121094 C 592.632813 257.121094 594.160156 257.980469 594.160156 260.605469 L 594.160156 261.890625 C 594.160156 264.277344 593.300781 265.804688 590.199219 265.804688 C 583.851563 265.804688 568.773438 263.417969 568.773438 242.851563 L 568.773438 115.777344 "/>
<g clip-path="url(#clip2)" clip-rule="nonzero">
<path style=" stroke:none;fill-rule:nonzero;fill:rgb(30.599976%,34.498596%,36.499023%);fill-opacity:1;" d="M 618.640625 159.535156 C 618.414063 157.703125 619.71875 156.039063 621.550781 155.8125 C 621.820313 155.78125 622.09375 155.78125 622.359375 155.8125 L 624.128906 155.8125 C 625.960938 155.589844 627.625 156.890625 627.851563 158.722656 C 627.882813 158.992188 627.882813 159.265625 627.851563 159.535156 L 627.851563 176.617188 C 627.859375 179.632813 627.570313 182.636719 626.988281 185.589844 L 627.421875 185.589844 C 632.90625 168.742188 645.792969 155.195313 664.164063 155.195313 C 667.21875 155.195313 668.9375 156.480469 668.9375 158.914063 L 668.9375 160.871094 C 668.9375 163.257813 666.980469 164.59375 664.164063 164.59375 C 639.683594 164.59375 628.089844 193.703125 628.089844 217.941406 L 628.089844 261.464844 C 628.3125 263.292969 627.011719 264.960938 625.179688 265.183594 C 624.910156 265.21875 624.636719 265.21875 624.367188 265.183594 L 622.601563 265.183594 C 620.769531 265.410156 619.101563 264.105469 618.878906 262.273438 C 618.847656 262.003906 618.847656 261.730469 618.878906 261.464844 L 618.640625 159.535156 "/>
</g>
<path style=" stroke:none;fill-rule:nonzero;fill:rgb(43.099976%,75.299072%,38.798523%);fill-opacity:1;" d="M 232.929688 22.203125 C 233.363281 14.464844 239.984375 8.546875 247.722656 8.976563 C 247.753906 8.980469 247.785156 8.980469 247.820313 8.984375 C 251.148438 9.066406 254.359375 10.257813 256.933594 12.371094 C 276 29.902344 285.628906 55.429688 282.894531 81.183594 C 282.894531 82.375 281.367188 82.328125 280.984375 81.183594 C 275.828125 63.671875 258.796875 43.53125 243.714844 37.519531 C 236.980469 35.566406 232.496094 29.203125 232.929688 22.203125 "/>
<path style=" stroke:none;fill-rule:nonzero;fill:rgb(23.498535%,76.499939%,87.098694%);fill-opacity:1;" d="M 363.488281 20.769531 C 363.152344 8.96875 353.3125 -0.324219 341.511719 0.0117188 C 341.1875 0.0195313 340.859375 0.0351563 340.535156 0.0625 C 314.671875 0.632813 279.886719 67.199219 299.785156 127.660156 C 299.785156 128.898438 301.214844 128.664063 301.3125 127.421875 C 304.078125 85.335938 329.324219 52.550781 352.035156 39.621094 C 359.445313 36.25 364.003906 28.652344 363.488281 20.53125 "/>
<path style=" stroke:none;fill-rule:nonzero;fill:rgb(98.399353%,67.799377%,19.599915%);fill-opacity:1;" d="M 221.621094 81.707031 C 222.105469 89.027344 228.371094 94.609375 235.699219 94.257813 C 251.710938 94.828125 267.136719 100.421875 279.789063 110.242188 C 280.695313 111.007813 280.839844 110.71875 280.269531 108.714844 C 275.878906 93.351563 252.351563 67.582031 235.269531 67.582031 C 227.863281 67.433594 221.742188 73.316406 221.59375 80.71875 C 221.585938 81.113281 221.59375 81.507813 221.621094 81.898438 "/>
<path style=" stroke:none;fill-rule:nonzero;fill:rgb(11.799622%,54.499817%,79.998779%);fill-opacity:1;" d="M 380.191406 81.707031 C 379.703125 89.027344 373.441406 94.609375 366.113281 94.257813 C 350.101563 94.828125 334.675781 100.421875 322.019531 110.242188 C 321.113281 111.007813 320.972656 110.71875 321.546875 108.714844 C 325.933594 93.351563 349.460938 67.582031 366.542969 67.582031 C 373.945313 67.433594 380.070313 73.316406 380.21875 80.71875 C 380.226563 81.113281 380.21875 81.507813 380.191406 81.898438 "/>
</g>
</svg>
